<?xml version="1.0" encoding="UTF-8"?>
<!DOCTYPE svg PUBLIC "-//W3C//DTD SVG 1.1//EN" "http://www.w3.org/Graphics/SVG/1.1/DTD/svg11.dtd">
<!-- Creator: CorelDRAW X7 -->
<svg xmlns="http://www.w3.org/2000/svg" xml:space="preserve" width="148mm" height="105mm" version="1.1" style="shape-rendering:geometricPrecision; text-rendering:geometricPrecision; image-rendering:optimizeQuality; fill-rule:evenodd; clip-rule:evenodd"
viewBox="0 0 14800 10500"
 xmlns:xlink="http://www.w3.org/1999/xlink">
 <defs>
  <style type="text/css">
   <![CDATA[
    .fil1 {fill:none}
    .fil0 {fill:#E84F22}
    .fil7 {fill:black}
    .fil8 {fill:gray}
    .fil4 {fill:#FEFEFE;fill-rule:nonzero}
    .fil6 {fill:#2B2A29;fill-rule:nonzero}
    .fil3 {fill:url(#id1)}
    .fil2 {fill:url(#id2)}
    .fil5 {fill:url(#id3);fill-rule:nonzero}
   ]]>
  </style>
    <clipPath id="id0">
     <path d="M12354 4503c-1,6 -2,11 -3,16 0,6 -1,11 -1,16 -1,5 -2,10 -2,15 0,5 -1,10 -1,15 0,4 0,9 0,14 0,4 0,9 0,13 0,5 0,9 0,13 0,4 1,9 1,13 0,4 1,8 2,12 0,4 1,8 2,12 0,4 1,8 2,12 1,4 2,8 4,11 1,4 2,7 4,11 1,3 2,7 4,10 2,3 3,6 5,9 2,3 4,6 6,9 2,2 4,5 6,8 2,2 4,5 7,7 0,0 0,0 0,1 2,2 5,4 7,6 2,2 5,4 8,6 3,1 5,3 8,5 3,2 6,3 9,5 3,1 7,2 10,4 3,1 7,2 10,3 4,1 7,2 11,3 4,1 7,1 11,2 4,0 8,1 12,1 26,3 57,1 91,-6 -1,-1 -3,-2 -4,-3 -8,-5 -15,-11 -22,-18 -7,-7 -14,-15 -20,-23 -7,-9 -13,-18 -19,-29 -5,-9 -11,-19 -16,-30 2,1 3,2 4,2 13,8 24,15 35,22 11,8 21,15 30,23 9,7 17,15 24,22 7,8 14,15 19,23 1,-5 1,-9 2,-13 0,-4 1,-8 1,-12 0,-4 0,-8 0,-12 0,-4 0,-8 -1,-12 0,-4 0,-7 -1,-11 -1,-4 -1,-8 -2,-11 -1,-4 -2,-8 -4,-11 -1,-4 -2,-7 -4,-11 -1,-3 -3,-6 -5,-10 -1,-2 -2,-4 -4,-7 -1,-2 -2,-4 -4,-6 -1,-3 -3,-5 -5,-7 -1,-2 -3,-4 -5,-7 -2,-2 -3,-4 -5,-6 -2,-2 -4,-4 -6,-6 -2,-2 -4,-4 -7,-6 -2,-2 -4,-4 -6,-6 -3,-2 -5,-4 -8,-6 -2,-2 -4,-4 -7,-5 -2,-2 -5,-4 -7,-6 -3,-1 -6,-3 -8,-5 -3,-1 -6,-3 -8,-5 -1,0 -1,0 -1,0 -3,-2 -5,-3 -8,-5 -3,-1 -6,-3 -9,-4 -3,-2 -6,-3 -9,-5 -4,-1 -7,-3 -10,-4 -1,-1 -1,-1 -2,-1 -3,-1 -5,-3 -8,-4 -4,-1 -7,-2 -10,-4 -4,-1 -7,-2 -11,-4 -4,-1 -7,-2 -11,-4 -4,-1 -7,-2 -11,-3 -4,-2 -8,-3 -12,-4 -4,-1 -7,-3 -12,-4 -4,-1 -8,-2 -12,-3 -4,-1 -8,-2 -12,-3 -4,-1 -8,-2 -12,-3 0,0 0,1 0,1z"/>
    </clipPath>
  <linearGradient id="id1" gradientUnits="userSpaceOnUse" x1="12196.5" y1="5167.26" x2="13004.9" y2="5167.26">
   <stop offset="0" style="stop-opacity:1; stop-color:#E31E24"/>
   <stop offset="0.109804" style="stop-opacity:1; stop-color:#E42724"/>
   <stop offset="0.219608" style="stop-opacity:1; stop-color:#E42D24"/>
   <stop offset="0.360784" style="stop-opacity:1; stop-color:#E5263D"/>
   <stop offset="0.509804" style="stop-opacity:1; stop-color:#E51955"/>
   <stop offset="0.619608" style="stop-opacity:1; stop-color:#E44241"/>
   <stop offset="0.729412" style="stop-opacity:1; stop-color:#E05D21"/>
   <stop offset="0.858824" style="stop-opacity:1; stop-color:#E55122"/>
   <stop offset="1" style="stop-opacity:1; stop-color:#E64125"/>
  </linearGradient>
  <linearGradient id="id2" gradientUnits="userSpaceOnUse" x1="4235.36" y1="5024.87" x2="12072.5" y2="5024.87">
   <stop offset="0" style="stop-opacity:1; stop-color:#E84F22"/>
   <stop offset="0.109804" style="stop-opacity:1; stop-color:#E63F23"/>
   <stop offset="0.219608" style="stop-opacity:1; stop-color:#E42D24"/>
   <stop offset="0.360784" style="stop-opacity:1; stop-color:#E5263D"/>
   <stop offset="0.509804" style="stop-opacity:1; stop-color:#E51955"/>
   <stop offset="0.619608" style="stop-opacity:1; stop-color:#E44241"/>
   <stop offset="0.729412" style="stop-opacity:1; stop-color:#E05D21"/>
   <stop offset="0.858824" style="stop-opacity:1; stop-color:#E55122"/>
   <stop offset="1" style="stop-opacity:1; stop-color:#E64125"/>
  </linearGradient>
  <linearGradient id="id3" gradientUnits="userSpaceOnUse" x1="12657.2" y1="4564.7" x2="12916.5" y2="4613.08">
   <stop offset="0" style="stop-opacity:1; stop-color:#4CAD3B"/>
   <stop offset="0.141176" style="stop-opacity:1; stop-color:#49AD3C"/>
   <stop offset="0.270588" style="stop-opacity:1; stop-color:#49AD3C"/>
   <stop offset="0.411765" style="stop-opacity:1; stop-color:#43A53B"/>
   <stop offset="0.560784" style="stop-opacity:1; stop-color:#3E9D3A"/>
   <stop offset="0.65098" style="stop-opacity:1; stop-color:#2F8E37"/>
   <stop offset="0.729412" style="stop-opacity:1; stop-color:#268135"/>
   <stop offset="0.768627" style="stop-opacity:1; stop-color:#1E7E34"/>
   <stop offset="0.8" style="stop-opacity:1; stop-color:#1F7D34"/>
   <stop offset="0.901961" style="stop-opacity:1; stop-color:#2E8334"/>
   <stop offset="1" style="stop-opacity:1; stop-color:#3B8734"/>
  </linearGradient>
 </defs>
 <g id="Layer_x0020_1">
  <metadata id="CorelCorpID_0Corel-Layer"/>
  <path class="fil0" d="M1516 3865c-2,39 103,187 137,231 8,10 12,15 20,26l13 17c108,132 174,45 175,15 1,-35 -57,-111 -80,-143l-110 -127c-17,-18 -59,-70 -86,-71 -38,-1 -68,17 -69,52z"/>
  <path class="fil1" d="M1516 3865c-2,39 103,187 137,231 8,10 12,15 20,26l13 17c108,132 174,45 175,15 1,-35 -57,-111 -80,-143l-110 -127c-17,-18 -59,-70 -86,-71 -38,-1 -68,17 -69,52z"/>
  <path class="fil0" d="M2250 3496c-2,69 -19,62 -6,125l75 224c18,90 22,171 18,271 -1,28 -9,35 -12,59 -32,-8 -55,-37 -96,-22 -35,14 -43,39 -53,79 -10,41 -16,67 -30,103 -14,33 -32,54 -52,80 -41,-1 -60,-4 -84,16 -63,50 -44,79 -9,135 -12,20 -37,42 -43,63 -31,-9 -55,-50 -73,-74 -28,-40 -29,-58 -81,-71 -25,-6 -48,-30 -61,-51 -9,-13 -2,-10 -15,-24 -16,-18 -31,-13 -51,-27 -67,-50 -74,-116 -118,-151 -57,-46 -186,-143 -272,-146 -25,0 -47,9 -57,23 -42,54 14,131 51,169 44,45 92,80 144,115l238 195c18,14 31,23 49,37 40,30 100,99 123,134 -30,13 -50,6 -78,29 -45,37 -52,99 -13,143 14,15 46,35 73,36 -6,44 -12,48 12,95l-323 108c-35,13 -69,26 -107,39 -103,36 -206,76 -275,158 -34,41 -79,103 -27,150 74,67 236,-28 302,-57l161 -80c18,-9 34,-16 54,-26l131 -70c13,-8 14,-9 25,-16 9,-6 16,-9 26,-14l125 -76c82,-46 217,-103 300,-100 17,0 78,41 42,95 -34,36 -192,120 -225,144 -72,53 -115,78 -79,178 14,38 36,60 77,71 20,6 40,0 68,1 6,26 89,74 115,88 -51,86 -206,158 -289,247 -48,51 -136,121 -139,195 -2,61 78,74 146,27l173 -160 138 -197c9,-16 11,-20 18,-38 8,-20 14,-22 19,-37 46,12 151,79 200,107 57,32 114,107 147,161 38,64 39,63 32,108 -24,146 -73,271 -79,427 -3,98 182,239 194,-97 4,-94 -9,-173 -6,-263 1,-13 2,-28 2,-40 0,-22 -4,-18 -4,-40 101,-19 80,-134 104,-155 15,-6 55,-19 73,-22 -2,62 17,149 34,209 54,186 184,157 187,71 4,-89 -78,-271 -111,-336 35,-16 66,-32 101,-50 100,-54 117,-50 215,-86 39,-14 71,-28 110,-41 21,-7 41,-7 64,-10 21,-3 43,-8 63,-12 108,-24 44,-28 179,-47 25,-3 41,-6 62,-13 18,-5 44,-13 56,-20 75,-40 21,-98 -43,-105 -18,-2 -55,1 -71,-4 -27,-7 -10,-21 -41,-30 9,-11 89,-53 120,-82l33 -17c13,-5 22,-11 32,-19 50,-43 37,-119 -18,-152 -28,-17 -22,-22 -21,-52 1,-36 11,-51 18,-79 15,-3 35,-5 48,-7 27,-5 66,-4 83,-27 16,-21 5,-24 6,-41 1,-19 13,-29 -15,-63 -17,-22 -35,-26 -52,-44 -36,-37 -40,-88 -32,-138 4,-26 20,-39 36,-55l91 -102c77,-91 -9,-206 -101,-68 -30,44 -33,43 -77,69 -24,-17 -46,-41 -75,-53 -27,-11 -64,-26 -103,-28 77,-274 -194,-269 -202,-60 -2,68 -3,101 -66,143 -18,13 -18,20 -39,21 4,-127 100,-209 -16,-273 36,-67 -5,-144 -88,-147 -26,-1 -30,9 -51,8 -5,0 -33,-37 -71,-42 3,-22 16,-35 28,-53 2,-1 125,-136 185,-320 2,-43 -13,-162 -60,-147 -44,14 -75,65 -103,104 -13,20 -34,57 -46,81 -11,21 -15,35 -26,55l-82 168c-9,18 -16,35 -26,55 -11,26 -10,40 -39,47 -61,14 -187,65 -206,126 -25,-6 -21,-10 -37,-24 -41,-37 -40,-14 -58,-72 -51,-171 -218,-216 -222,-103 -2,54 48,124 74,173 15,28 11,34 9,73 -38,-29 -33,-55 -100,-73 -41,-200 -44,-346 -40,-544 1,-38 5,64 0,0 -7,-90 30,-81 3,-227 -95,-193 -229,-84 -197,82z"/>
  <path class="fil1" d="M2250 3496c-2,69 -19,62 -6,125l75 224c18,90 22,171 18,271 -1,28 -9,35 -12,59 -32,-8 -55,-37 -96,-22 -35,14 -43,39 -53,79 -10,41 -16,67 -30,103 -14,33 -32,54 -52,80 -41,-1 -60,-4 -84,16 -63,50 -44,79 -9,135 -12,20 -37,42 -43,63 -31,-9 -55,-50 -73,-74 -28,-40 -29,-58 -81,-71 -25,-6 -48,-30 -61,-51 -9,-13 -2,-10 -15,-24 -16,-18 -31,-13 -51,-27 -67,-50 -74,-116 -118,-151 -57,-46 -186,-143 -272,-146 -25,0 -47,9 -57,23 -42,54 14,131 51,169 44,45 92,80 144,115l238 195c18,14 31,23 49,37 40,30 100,99 123,134 -30,13 -50,6 -78,29 -45,37 -52,99 -13,143 14,15 46,35 73,36 -6,44 -12,48 12,95l-323 108c-35,13 -69,26 -107,39 -103,36 -206,76 -275,158 -34,41 -79,103 -27,150 74,67 236,-28 302,-57l161 -80c18,-9 34,-16 54,-26l131 -70c13,-8 14,-9 25,-16 9,-6 16,-9 26,-14l125 -76c82,-46 217,-103 300,-100 17,0 78,41 42,95 -34,36 -192,120 -225,144 -72,53 -115,78 -79,178 14,38 36,60 77,71 20,6 40,0 68,1 6,26 89,74 115,88 -51,86 -206,158 -289,247 -48,51 -136,121 -139,195 -2,61 78,74 146,27l173 -160 138 -197c9,-16 11,-20 18,-38 8,-20 14,-22 19,-37 46,12 151,79 200,107 57,32 114,107 147,161 38,64 39,63 32,108 -24,146 -73,271 -79,427 -3,98 182,239 194,-97 4,-94 -9,-173 -6,-263 1,-13 2,-28 2,-40 0,-22 -4,-18 -4,-40 101,-19 80,-134 104,-155 15,-6 55,-19 73,-22 -2,62 17,149 34,209 54,186 184,157 187,71 4,-89 -78,-271 -111,-336 35,-16 66,-32 101,-50 100,-54 117,-50 215,-86 39,-14 71,-28 110,-41 21,-7 41,-7 64,-10 21,-3 43,-8 63,-12 108,-24 44,-28 179,-47 25,-3 41,-6 62,-13 18,-5 44,-13 56,-20 75,-40 21,-98 -43,-105 -18,-2 -55,1 -71,-4 -27,-7 -10,-21 -41,-30 9,-11 89,-53 120,-82l33 -17c13,-5 22,-11 32,-19 50,-43 37,-119 -18,-152 -28,-17 -22,-22 -21,-52 1,-36 11,-51 18,-79 15,-3 35,-5 48,-7 27,-5 66,-4 83,-27 16,-21 5,-24 6,-41 1,-19 13,-29 -15,-63 -17,-22 -35,-26 -52,-44 -36,-37 -40,-88 -32,-138 4,-26 20,-39 36,-55l91 -102c77,-91 -9,-206 -101,-68 -30,44 -33,43 -77,69 -24,-17 -46,-41 -75,-53 -27,-11 -64,-26 -103,-28 77,-274 -194,-269 -202,-60 -2,68 -3,101 -66,143 -18,13 -18,20 -39,21 4,-127 100,-209 -16,-273 36,-67 -5,-144 -88,-147 -26,-1 -30,9 -51,8 -5,0 -33,-37 -71,-42 3,-22 16,-35 28,-53 2,-1 125,-136 185,-320 2,-43 -13,-162 -60,-147 -44,14 -75,65 -103,104 -13,20 -34,57 -46,81 -11,21 -15,35 -26,55l-82 168c-9,18 -16,35 -26,55 -11,26 -10,40 -39,47 -61,14 -187,65 -206,126 -25,-6 -21,-10 -37,-24 -41,-37 -40,-14 -58,-72 -51,-171 -218,-216 -222,-103 -2,54 48,124 74,173 15,28 11,34 9,73 -38,-29 -33,-55 -100,-73 -41,-200 -44,-346 -40,-544 1,-38 5,64 0,0 -7,-90 30,-81 3,-227 -95,-193 -229,-84 -197,82z"/>
  <path class="fil0" d="M3788 3857c-1,27 37,48 86,22 35,-18 48,-29 76,-55 34,-30 115,-104 98,-157 -10,-34 -45,-47 -84,-33 -41,14 -81,58 -104,92 -23,34 -71,91 -72,131z"/>
  <path class="fil1" d="M3788 3857c-1,27 37,48 86,22 35,-18 48,-29 76,-55 34,-30 115,-104 98,-157 -10,-34 -45,-47 -84,-33 -41,14 -81,58 -104,92 -23,34 -71,91 -72,131z"/>
  <path class="fil0" d="M2102 6300c11,0 36,-16 43,-23 26,-23 118,-190 11,-194 -26,-1 -70,76 -79,98 -11,28 -30,77 -7,104 6,7 22,14 32,15z"/>
  <path class="fil0" d="M1186 4424c-1,33 33,61 58,73l103 32c30,1 60,-24 14,-66 -25,-23 -87,-71 -122,-72 -22,-1 -52,14 -53,33z"/>
  <path class="fil0" d="M3888 5639c-3,63 188,123 181,43 -2,-29 -43,-52 -69,-62l-14 -7c-13,-7 -3,-8 -22,-12 -2,-1 -75,2 -76,38z"/>
  <path class="fil0" d="M3395 6150c82,3 18,-163 -66,-166 -18,-1 -31,22 -28,36l22 51c10,28 37,78 72,79z"/>
  <path class="fil0" d="M2531 3716c77,2 42,-108 4,-109l-26 -1c-23,-1 -41,32 -33,58 7,22 25,51 55,52z"/>
  <path class="fil0" d="M3551 5550c32,1 14,-1 31,-9 17,-9 52,-13 53,-38 1,-23 -4,-42 -24,-44 -19,-2 -7,8 -62,12 -16,1 -17,-1 -25,11 -18,25 11,68 27,68z"/>
  <path class="fil0" d="M1771 5193c54,1 83,-68 33,-72 -11,-1 -26,7 -35,13 -41,31 -13,58 2,59z"/>
  <path class="fil0" d="M3956 5385c-1,24 72,47 69,16 -1,-11 -16,-20 -26,-24l-6 -2c-5,-3 -1,-3 -8,-5 -1,0 -29,1 -29,15z"/>
  <path class="fil2" d="M4404 4576c-72,72 -107,159 -107,258l0 0c0,84 24,167 70,250l0 0c31,52 45,86 45,102l0 0c0,23 -10,43 -27,58l0 0c-19,16 -41,24 -70,24l0 0c-22,0 -49,-9 -80,-28l0 0 0 307c50,24 101,35 152,35 104,0 195,-37 268,-107l0 0c74,-71 110,-159 110,-262l0 0c0,-70 -22,-144 -65,-218l0 0 -24 -43c-19,-32 -29,-59 -29,-80l0 0c0,-25 8,-46 26,-64l0 0c17,-19 38,-27 62,-27l0 0c13,0 30,4 52,10l0 0 0 -302c-41,-15 -84,-21 -127,-21l0 0c-100,0 -184,37 -256,108zm7377 979l291 0 0 -1062 -291 0 0 1062zm-2733 -1062l0 637c0,111 22,199 67,266l0 0c35,52 83,93 140,124l0 0c59,30 121,46 186,46l0 0 33 0 0 -306c-51,0 -87,-11 -106,-35l0 0c-19,-24 -29,-65 -29,-127l0 0 131 0 0 -307 -131 0 0 -298 -291 0zm-1842 0l0 646c0,120 32,215 94,290l0 0c35,43 81,78 136,103l0 0c54,26 112,39 169,39l0 0c116,0 213,-40 293,-117l0 0c79,-77 119,-173 119,-288l0 0c0,-111 -38,-205 -116,-284l0 0c-78,-78 -172,-118 -282,-118l0 0c-17,0 -43,2 -78,5l0 0 0 320c27,-18 53,-28 74,-28l0 0c30,0 55,12 76,32l0 0c21,23 30,48 30,80l0 0c0,32 -11,57 -33,79l0 0c-21,21 -48,32 -80,32l0 0c-75,0 -111,-52 -111,-156l0 0 0 -635 -291 0zm-2280 0l0 1062 291 0 0 -422c0,-48 16,-72 48,-72l0 0c20,0 33,5 41,18l0 0c6,11 10,33 10,65l0 0 0 411 291 0 0 -492c0,-92 -22,-164 -65,-218l0 0c-45,-54 -104,-81 -177,-81l0 0c-49,0 -99,17 -148,54l0 0 0 -325 -291 0zm5996 389c-78,78 -118,173 -118,284l0 0c0,117 39,212 117,290l0 0c78,76 175,115 291,115l0 0c19,0 41,-2 65,-7l0 0 0 -300c-21,14 -45,20 -70,20l0 0c-30,0 -56,-11 -76,-32l0 0c-21,-20 -31,-46 -31,-78l0 0c0,-31 12,-57 34,-79l0 0c22,-22 48,-34 78,-34l0 0c33,0 60,13 79,37l0 0c21,24 31,57 31,97l0 0 0 360 291 0 0 -381c0,-127 -37,-227 -108,-300l0 0c-72,-73 -171,-110 -296,-110l0 0c-113,0 -209,40 -287,118zm-2701 0c-78,78 -118,173 -118,284l0 0c0,117 38,212 116,290l0 0c78,76 175,115 291,115l0 0c19,0 42,-2 65,-7l0 0 0 -300c-20,14 -44,20 -69,20l0 0c-31,0 -56,-11 -77,-32l0 0c-21,-20 -30,-46 -30,-78l0 0c0,-31 11,-57 33,-79l0 0c23,-22 48,-34 78,-34l0 0c34,0 61,13 80,37l0 0c21,24 30,57 30,97l0 0 0 360 291 0 0 -381c0,-127 -36,-227 -108,-300l0 0c-71,-73 -170,-110 -296,-110l0 0c-113,0 -208,40 -286,118zm-1416 -18c-62,65 -93,154 -93,267l0 0 0 424 292 0 0 -368c0,-81 27,-121 79,-121l0 0c16,0 34,5 54,16l0 0 0 -310c-36,-5 -65,-8 -89,-8l0 0c-102,0 -183,33 -243,100zm-952 18c-78,78 -117,173 -117,284l0 0c0,117 38,212 116,290l0 0c78,76 175,115 291,115l0 0c19,0 41,-2 65,-7l0 0 0 -300c-20,14 -44,20 -70,20l0 0c-30,0 -56,-11 -76,-32l0 0c-21,-20 -30,-46 -30,-78l0 0c0,-31 11,-57 33,-79l0 0c22,-22 48,-34 78,-34l0 0c33,0 60,13 80,37l0 0c20,24 30,57 30,97l0 0 0 360 291 0 0 -381c0,-127 -37,-227 -108,-300l0 0c-72,-73 -171,-110 -296,-110l0 0c-113,0 -209,40 -287,118zm4532 -91l0 417c0,59 -16,87 -48,87l0 0c-18,0 -29,-6 -35,-19l0 0c-8,-12 -11,-35 -11,-68l0 0 0 -417 -292 0 0 417c0,59 -15,87 -49,87l0 0c-17,0 -29,-6 -36,-19l0 0c-7,-12 -10,-35 -10,-68l0 0 0 -417 -291 0 0 444c0,105 24,185 70,240l0 0c57,72 135,107 232,107 78,0 153,-37 229,-110l0 0c69,73 145,110 231,110 84,0 154,-30 213,-93l0 0c59,-60 88,-133 88,-221l0 0 0 -477 -291 0z"/>
  <path class="fil3" d="M12314 4882c-78,78 -117,173 -117,284 0,117 38,212 116,290l0 0c78,76 175,115 291,115l0 0c19,0 41,-2 65,-7l0 0 0 -300c-21,14 -44,20 -70,20l0 0c-30,0 -56,-11 -76,-32l0 0c-21,-20 -30,-46 -30,-78l0 0c0,-31 11,-57 33,-79l0 0c22,-22 48,-34 78,-34l0 0c33,0 60,13 79,37l0 0c21,24 31,57 31,97l0 0 0 360 291 0 0 -381c0,-127 -37,-227 -108,-300l0 0c-72,-73 -171,-110 -296,-110l0 0c-113,0 -209,40 -287,118l0 0z"/>
  <path class="fil4" d="M2529 4778l0 777 -315 0 0 -1061 404 0c123,0 219,30 286,91 76,69 114,156 114,261 0,107 -47,198 -140,272l181 437 -331 0 -153 -342 0 -272 25 0c66,0 99,-29 99,-87 0,-50 -38,-76 -114,-76l-56 0zm1135 -289l0 303c-23,-7 -41,-10 -53,-10 -24,0 -45,8 -62,26 -17,18 -25,39 -25,64 0,21 9,48 28,80l24 42c44,76 65,149 65,219 0,103 -36,190 -110,262 -73,71 -163,107 -268,107 -51,0 -101,-12 -151,-36l0 -307c30,20 57,29 80,29 27,0 50,-8 69,-23 18,-16 27,-36 27,-60 0,-15 -14,-49 -44,-101 -47,-83 -70,-166 -70,-249 0,-100 35,-186 107,-258 71,-73 156,-109 255,-109 43,0 86,7 128,21z"/>
  <g>
   <g style="clip-path:url(#id0)">
    <image x="12305" y="4460" width="339" height="339" xlink:href="logo Rs_Images\logo Rs_ImgID1.png"/>
   </g>
  </g>
  <path class="fil5" d="M12905 4447l-2 0c-343,0 -297,275 -297,275l0 0c113,-96 220,-113 220,-113l0 0c-45,57 -178,118 -178,118l0 0c354,46 321,-277 321,-277l0 0c-22,-2 -44,-3 -64,-3z"/>
  <path class="fil6" d="M10877 6065l0 -41c21,16 44,23 69,23 33,0 50,-11 50,-33 0,-6 -1,-12 -4,-16 -3,-5 -7,-8 -12,-12 -5,-3 -11,-6 -17,-9 -7,-3 -14,-6 -21,-9 -11,-4 -20,-8 -28,-12 -8,-4 -15,-9 -20,-15 -5,-5 -10,-11 -12,-18 -3,-7 -4,-15 -4,-24 0,-11 2,-21 7,-29 5,-9 12,-16 21,-22 8,-6 18,-10 29,-13 11,-3 22,-5 34,-5 20,0 39,4 55,11l0 39c-17,-12 -38,-17 -60,-17 -7,0 -14,0 -20,2 -5,2 -10,4 -14,7 -4,3 -8,6 -10,10 -2,4 -3,9 -3,14 0,6 1,11 3,16 2,4 6,7 10,11 4,3 10,6 16,8 6,3 13,6 21,9 10,4 20,8 28,12 9,5 16,10 22,15 5,5 10,11 13,18 3,7 5,16 5,25 0,12 -3,22 -8,31 -5,9 -12,16 -21,21 -8,6 -18,10 -30,13 -11,3 -23,4 -35,4 -25,0 -46,-4 -64,-14zm236 -289c-7,0 -13,-3 -17,-7 -5,-5 -8,-11 -8,-18 0,-7 3,-13 8,-18 4,-4 10,-7 17,-7 7,0 13,3 18,7 5,5 7,11 7,18 0,7 -2,13 -7,17 -5,5 -11,8 -18,8zm19 298l-39 0 0 -238 39 0 0 238zm274 0l-38 0 0 -136c0,-50 -18,-75 -55,-75 -19,0 -35,7 -48,21 -12,14 -18,32 -18,54l0 136 -38 0 0 -238 38 0 0 40 1 0c18,-31 44,-46 78,-46 26,0 46,9 59,26 14,16 21,41 21,72l0 146zm234 -11c-18,11 -40,16 -65,16 -34,0 -61,-11 -82,-33 -21,-22 -31,-50 -31,-86 0,-39 11,-70 33,-94 23,-24 53,-36 90,-36 21,0 40,4 55,12l0 39c-17,-12 -36,-18 -56,-18 -24,0 -44,8 -60,26 -16,17 -23,40 -23,68 0,28 7,50 22,66 14,16 34,24 59,24 20,0 40,-7 58,-20l0 36zm249 -99l-168 0c0,27 8,47 21,62 14,14 33,21 56,21 27,0 52,-8 74,-26l0 36c-21,15 -48,22 -83,22 -33,0 -60,-10 -79,-32 -19,-22 -29,-52 -29,-91 0,-37 11,-67 32,-91 21,-23 47,-35 78,-35 31,0 55,11 72,31 17,20 26,48 26,83l0 20zm-39 -32c0,-22 -6,-39 -16,-51 -11,-12 -25,-18 -44,-18 -18,0 -33,6 -45,19 -13,13 -21,29 -24,50l129 0zm356 142l-38 0 0 -288c-3,3 -7,6 -13,10 -5,4 -12,8 -19,11 -7,4 -14,8 -22,11 -8,3 -15,6 -23,8l0 -39c8,-2 17,-5 27,-9 9,-4 18,-9 27,-14 9,-4 18,-10 26,-15 8,-5 15,-10 21,-16l14 0 0 341zm322 -187c0,31 -3,58 -9,82 -6,24 -15,44 -27,60 -11,17 -26,29 -42,38 -17,8 -36,13 -57,13 -22,0 -42,-4 -58,-12l0 -36c18,10 38,15 59,15 15,0 28,-3 40,-9 12,-6 22,-15 30,-27 8,-12 14,-27 19,-44 4,-17 6,-37 6,-60l-1 0c-14,29 -39,43 -74,43 -14,0 -27,-2 -39,-7 -12,-5 -23,-12 -31,-22 -9,-9 -16,-20 -20,-32 -5,-13 -8,-27 -8,-43 0,-16 3,-31 8,-45 6,-13 13,-25 23,-35 9,-10 21,-17 34,-23 13,-5 27,-8 42,-8 17,0 32,4 45,10 13,7 24,17 33,30 8,13 15,29 20,48 4,18 7,40 7,64zm-41 -34c0,-13 -2,-24 -5,-35 -4,-10 -8,-19 -14,-27 -6,-7 -13,-13 -21,-17 -8,-4 -17,-6 -27,-6 -9,0 -17,1 -25,5 -8,4 -15,9 -21,15 -6,7 -10,15 -14,24 -3,9 -5,19 -5,29 0,12 2,23 5,32 3,9 8,17 14,24 6,6 13,11 21,14 8,4 17,5 28,5 8,0 17,-1 25,-5 7,-3 14,-7 20,-13 6,-6 10,-12 14,-20 3,-8 5,-16 5,-25zm85 128c0,-9 1,-18 4,-27 3,-9 7,-17 12,-25 5,-7 12,-14 19,-21 8,-6 17,-11 26,-15 -14,-8 -25,-18 -34,-31 -8,-13 -13,-26 -13,-42 0,-12 3,-23 7,-34 5,-10 12,-19 20,-27 8,-7 18,-13 30,-17 11,-5 24,-7 37,-7 13,0 26,2 37,7 12,4 22,10 30,18 8,7 15,16 20,27 4,10 6,21 6,33 0,16 -4,29 -12,42 -9,13 -20,23 -34,31 9,4 18,9 26,15 7,7 14,14 19,21 5,8 9,16 12,25 3,9 4,18 4,27 0,15 -3,28 -8,40 -5,12 -13,22 -22,31 -10,9 -21,15 -34,20 -14,5 -28,7 -44,7 -16,0 -30,-2 -44,-7 -13,-5 -24,-11 -34,-20 -9,-9 -17,-19 -22,-31 -5,-12 -8,-25 -8,-40zm41 -3c0,10 2,19 5,28 3,8 8,15 13,21 6,6 13,11 22,14 8,3 17,5 27,5 10,0 19,-2 27,-5 8,-4 15,-8 21,-14 6,-6 11,-13 14,-21 4,-9 5,-18 5,-28 0,-10 -1,-18 -4,-26 -4,-9 -8,-16 -14,-22 -6,-6 -13,-11 -21,-15 -8,-3 -18,-5 -28,-5 -9,0 -18,2 -27,5 -8,3 -15,8 -21,14 -6,6 -10,13 -14,21 -3,9 -5,18 -5,28zm12 -155c0,8 2,15 4,22 3,7 7,13 12,18 5,5 11,9 18,12 6,3 14,4 21,4 8,0 15,-2 22,-4 6,-3 12,-7 17,-12 5,-5 9,-11 12,-18 3,-7 4,-14 4,-22 0,-8 -1,-15 -4,-22 -3,-7 -7,-13 -12,-18 -5,-5 -10,-9 -17,-11 -7,-3 -14,-5 -22,-5 -8,0 -16,2 -22,5 -7,3 -13,7 -18,12 -5,5 -8,11 -11,17 -3,7 -4,14 -4,22zm380 -82l0 220 42 0 0 35 -42 0 0 78 -38 0 0 -78 -156 0 0 -33c14,-17 29,-34 44,-53 15,-19 29,-38 42,-57 14,-19 26,-38 38,-57 11,-19 21,-38 29,-55l41 0zm-151 220l113 0 0 -163c-11,20 -22,38 -33,54 -10,16 -20,30 -29,43 -10,13 -19,25 -27,36 -9,10 -17,20 -24,30z"/>
  <g>
   <path class="fil7" d="M13223 4134c99,-9 176,64 185,151 9,99 -64,175 -151,184 -98,11 -176,-64 -184,-150 -9,-98 64,-177 150,-185zm-5 -22c-98,12 -181,98 -167,212 12,104 104,179 211,168 98,-11 180,-100 168,-212 -10,-97 -101,-182 -212,-168z"/>
   <path class="fil7" d="M13303 4321l-2 4c-3,-2 -2,3 -2,-3l-22 -86 -40 0 1 131 24 0 0 -100 26 100 25 0 26 -101 1 101 24 0 0 -130 -40 -1 -21 85z"/>
   <path class="fil7" d="M13156 4259l0 108 25 0 0 -108 39 -1 1 -22 -103 0 0 21c7,0 31,-1 38,2z"/>
   <path class="fil8" d="M13156 4259c-7,-3 -31,-2 -38,-2l0 -21c-3,6 -2,16 -2,22l40 1z"/>
   <path class="fil8" d="M13303 4321l-4 1c0,6 -1,1 2,3l2 -4z"/>
  </g>
 </g>
</svg>
